<!-- icon666.com - MILLIONS vector ICONS FREE --><svg viewBox="0 0 512 512" xmlns="http://www.w3.org/2000/svg" xmlns:xlink="http://www.w3.org/1999/xlink"><linearGradient id="a" gradientTransform="matrix(1 0 0 -1 0 -13022)" gradientUnits="userSpaceOnUse" x1="0" x2="512" y1="-13278" y2="-13278"><stop offset="0" stop-color="#00f38d"></stop><stop offset="1" stop-color="#009eff"></stop></linearGradient><path d="m512 256c0 141.386719-114.613281 256-256 256s-256-114.613281-256-256 114.613281-256 256-256 256 114.613281 256 256zm0 0" fill="url(#a)"></path><g fill="#fff"><path d="m256 56c-110.28125 0-200 89.71875-200 200s89.71875 200 200 200 200-89.71875 200-200-89.71875-200-200-200zm0 30c88.683594 0 161.710938 68.261719 169.332031 155h-93.085937c-7.011719-35.695312-38.527344-62.710938-76.246094-62.710938s-69.234375 27.015626-76.246094 62.710938h-93.085937c7.621093-86.738281 80.648437-155 169.332031-155zm47.710938 170c0 26.308594-21.402344 47.710938-47.710938 47.710938s-47.710938-21.402344-47.710938-47.710938 21.402344-47.710938 47.710938-47.710938 47.710938 21.402344 47.710938 47.710938zm-47.710938 170c-88.683594 0-161.710938-68.261719-169.332031-155h93.085937c7.011719 35.695312 38.527344 62.710938 76.246094 62.710938s69.234375-27.015626 76.242188-62.710938h93.085937c-7.617187 86.738281-80.644531 155-169.328125 155zm0 0"></path><path d="m271.679688 256c0 8.660156-7.019532 15.679688-15.679688 15.679688s-15.679688-7.019532-15.679688-15.679688 7.019532-15.679688 15.679688-15.679688 15.679688 7.019532 15.679688 15.679688zm0 0"></path></g></svg>